<svg xmlns="http://www.w3.org/2000/svg" width="299.315" height="316.82" viewBox="0 0 299.315 316.82">
  <g id="Group_21" data-name="Group 21" transform="translate(-32.833 -336.7)">
    <path id="Path_136" data-name="Path 136" d="M174.751,589s.1,5.055,1.61,6.394,9.312,1.243,11.819.565,3.017-6.368,3.017-6.368" transform="translate(-7)" fill="#656565"/>
    <path id="Path_135" data-name="Path 135" d="M45.175,514.176s-11.688-20-3.5-33.356c13.3-20.686,42.751-23.98,42.751-23.98s17.392-15.578,36.577-18.493,40.029,14.025,40.029,14.025,27.68.666,42.428,16.392,9.275,40.773,9.275,40.773,15.047,14.377,12.62,31.9-12.62,19.468-12.62,19.468,10.145,13.26-1.3,22.555-56,6.918-63.54,2.024-6.438-16.889-6.438-16.889-19.312,2.751-29.365-1.568-10.954-12.951-10.954-12.951-51.225,5.107-62.5-10.14S45.175,514.176,45.175,514.176Z" fill="none" stroke="#656565" stroke-width="4"/>
    <path id="Path_137" data-name="Path 137" d="M175,596.1s.678,28.769,0,31.955-26.8,3.922-33.284,2.371,1.063-15.654,9.027-13.257,6.549,10.887,6.549,10.887V648c0,5.405-12.761,4.432-13.862,2.343s2.356-7.125,7.313-9.369,95.922.433,129.531,0c12.992-2.1,0-177.494,0-177.494" fill="none" stroke="#656565" stroke-width="3"/>
    <path id="Path_138" data-name="Path 138" d="M273.333,454.3l17.461-6.387s-.894,4.782-7.461,7.3S273.333,454.3,273.333,454.3Z" fill="#ffe30a" stroke="#ffe30a" stroke-width="3"/>
    <path id="Path_139" data-name="Path 139" d="M269.47,446.758l20.948-8.457" transform="translate(1.227)" fill="none" stroke="#ffe30a" stroke-linecap="round" stroke-width="3"/>
    <path id="Path_140" data-name="Path 140" d="M269.47,437.379l20.948-8.6" transform="translate(1.227)" fill="none" stroke="#ffe30a" stroke-linecap="round" stroke-width="3"/>
    <path id="Path_141" data-name="Path 141" d="M269.47,419.146s.191-3.744-3.212-8.052-12.222-12.264-10.883-28.313,15.425-25.9,27.768-25.871,21.57,8.454,24.794,22.116-4.482,21.911-8.185,26.336-7.459,15.133-7.459,15.133l-22.822,8.4" fill="none" stroke="#ffe30a" stroke-width="3"/>
    <line id="Line_12" data-name="Line 12" x2="7" y2="7" transform="translate(307.647 414.2)" fill="none" stroke="#ffe30a" stroke-linecap="round" stroke-width="3"/>
    <line id="Line_13" data-name="Line 13" x2="10" transform="translate(320.647 387.2)" fill="none" stroke="#ffe30a" stroke-linecap="round" stroke-width="3"/>
    <line id="Line_14" data-name="Line 14" y1="7" x2="6" transform="translate(309.647 352.2)" fill="none" stroke="#ffe30a" stroke-linecap="round" stroke-width="3"/>
    <line id="Line_15" data-name="Line 15" y1="9" transform="translate(281.647 338.2)" fill="none" stroke="#ffe30a" stroke-linecap="round" stroke-width="3"/>
    <line id="Line_16" data-name="Line 16" x1="7" y1="8" transform="translate(245.647 351.2)" fill="none" stroke="#ffe30a" stroke-linecap="round" stroke-width="3"/>
    <line id="Line_17" data-name="Line 17" x1="10" transform="translate(232.647 387.2)" fill="none" stroke="#ffe30a" stroke-linecap="round" stroke-width="3"/>
    <line id="Line_18" data-name="Line 18" x1="7" y2="7" transform="translate(245.647 414.2)" fill="none" stroke="#ffe30a" stroke-linecap="round" stroke-width="3"/>
    <path id="Path_142" data-name="Path 142" d="M288.395,421.2V409.726c0-2.869,8-8.476,9.262-19.519s-3.681-13.047-5.533-12.946-7.372,8.233-7.616,14.144,1.336,7.1,2.561,7.277,2.55-2.111,2.327-6.144-1.463-15.388-7.505-14.59-6.667,11.5-6.621,14.922.985,6.419,2.438,6.7,2.83-1.218,2.548-6.424-5.714-14.126-7.489-14.055-7.091,9.364-8.285,12.313-7.647,1.133-7.647,1.133" fill="none" stroke="#ffe30a" stroke-width="2"/>
    <g id="Ellipse_47" data-name="Ellipse 47" transform="translate(148.147 498.7)" fill="none" stroke="#ff7c7c" stroke-width="10">
      <circle cx="27.5" cy="27.5" r="27.5" stroke="none"/>
      <circle cx="27.5" cy="27.5" r="22.5" fill="none"/>
    </g>
    <g id="Ellipse_48" data-name="Ellipse 48" transform="translate(108.147 466.7)" fill="none" stroke="#e6fff7" stroke-width="10">
      <circle cx="19" cy="19" r="19" stroke="none"/>
      <circle cx="19" cy="19" r="14" fill="none"/>
    </g>
    <g id="Ellipse_49" data-name="Ellipse 49" transform="translate(67.147 499.7)" fill="none" stroke="#ff7f2f" stroke-width="10">
      <circle cx="19" cy="19" r="19" stroke="none"/>
      <circle cx="19" cy="19" r="14" fill="none"/>
    </g>
    <rect id="Rectangle_62" data-name="Rectangle 62" width="12" height="10" transform="matrix(0.559, -0.829, 0.829, 0.559, 144.647, 509.878)" fill="#ff7c7c"/>
    <rect id="Rectangle_63" data-name="Rectangle 63" width="12" height="10" transform="translate(163.439 492.7) rotate(-9)" fill="#ff7c7c"/>
    <rect id="Rectangle_71" data-name="Rectangle 71" width="12" height="10" transform="translate(112.754 465.183) rotate(-21)" fill="#e6fff7"/>
    <rect id="Rectangle_79" data-name="Rectangle 79" width="12" height="10" transform="translate(71.754 498.183) rotate(-21)" fill="#ff7f2f"/>
    <rect id="Rectangle_74" data-name="Rectangle 74" width="12" height="10" transform="matrix(0.857, 0.515, -0.515, 0.857, 134.58, 462.324)" fill="#e6fff7"/>
    <rect id="Rectangle_80" data-name="Rectangle 80" width="12" height="10" transform="matrix(0.857, 0.515, -0.515, 0.857, 93.58, 495.324)" fill="#ff7f2f"/>
    <rect id="Rectangle_75" data-name="Rectangle 75" width="12" height="10" transform="matrix(0.122, 0.993, -0.993, 0.122, 150.379, 477.136)" fill="#e6fff7"/>
    <rect id="Rectangle_84" data-name="Rectangle 84" width="12" height="10" transform="matrix(0.122, 0.993, -0.993, 0.122, 109.379, 510.136)" fill="#ff7f2f"/>
    <rect id="Rectangle_77" data-name="Rectangle 77" width="12" height="10" transform="translate(148.926 498.993) rotate(135)" fill="#e6fff7"/>
    <rect id="Rectangle_83" data-name="Rectangle 83" width="12" height="10" transform="translate(107.926 531.993) rotate(135)" fill="#ff7f2f"/>
    <rect id="Rectangle_76" data-name="Rectangle 76" width="12" height="10" transform="translate(129.689 510.204) rotate(-175)" fill="#e6fff7"/>
    <rect id="Rectangle_82" data-name="Rectangle 82" width="12" height="10" transform="translate(88.689 543.204) rotate(-175)" fill="#ff7f2f"/>
    <rect id="Rectangle_72" data-name="Rectangle 72" width="12" height="10" transform="translate(102.688 484.09) rotate(-74)" fill="#e6fff7"/>
    <rect id="Rectangle_78" data-name="Rectangle 78" width="12" height="10" transform="translate(61.688 517.09) rotate(-74)" fill="#ff7f2f"/>
    <rect id="Rectangle_73" data-name="Rectangle 73" width="12" height="10" transform="translate(109.222 503.456) rotate(-123)" fill="#e6fff7"/>
    <rect id="Rectangle_81" data-name="Rectangle 81" width="12" height="10" transform="translate(68.222 536.456) rotate(-123)" fill="#ff7f2f"/>
    <rect id="Rectangle_64" data-name="Rectangle 64" width="12" height="10" transform="matrix(0.799, 0.602, -0.602, 0.799, 191.365, 494.096)" fill="#ff7c7c"/>
    <rect id="Rectangle_65" data-name="Rectangle 65" width="12" height="10" transform="matrix(0.052, 0.999, -0.999, 0.052, 151.827, 521.447)" fill="#ff7c7c"/>
    <rect id="Rectangle_66" data-name="Rectangle 66" width="12" height="10" transform="matrix(0.643, 0.766, -0.766, 0.643, 153.121, 536.89)" fill="#ff7c7c"/>
    <rect id="Rectangle_67" data-name="Rectangle 67" width="12" height="10" transform="matrix(0.985, 0.174, -0.174, 0.985, 164.107, 549.734)" fill="#ff7c7c"/>
    <rect id="Rectangle_68" data-name="Rectangle 68" width="12" height="10" transform="translate(182.476 551.236) rotate(-29)" fill="#ff7c7c"/>
    <rect id="Rectangle_69" data-name="Rectangle 69" width="12" height="10" transform="matrix(0.242, -0.97, 0.97, 0.242, 197.845, 541.313)" fill="#ff7c7c"/>
    <rect id="Rectangle_70" data-name="Rectangle 70" width="12" height="10" transform="translate(201.247 523.952) rotate(-108)" fill="#ff7c7c"/>
    <g id="Ellipse_50" data-name="Ellipse 50" transform="translate(113.147 516.7)" fill="#fff" stroke="#707070" stroke-width="5">
      <circle cx="12" cy="12" r="12" stroke="none"/>
      <circle cx="12" cy="12" r="9.5" fill="none"/>
    </g>
    <rect id="Rectangle_85" data-name="Rectangle 85" width="8" height="4" transform="matrix(0.946, -0.326, 0.326, 0.946, 115.714, 516.111)" fill="#707070"/>
    <rect id="Rectangle_86" data-name="Rectangle 86" width="8" height="4" transform="translate(113.957 531.39) rotate(48)" fill="#707070"/>
    <rect id="Rectangle_89" data-name="Rectangle 89" width="8" height="4" transform="matrix(1, -0.017, 0.017, 1, 121.113, 538.771)" fill="#707070"/>
    <rect id="Rectangle_90" data-name="Rectangle 90" width="8" height="4" transform="matrix(0.53, -0.848, 0.848, 0.53, 131.332, 538.033)" fill="#707070"/>
    <rect id="Rectangle_91" data-name="Rectangle 91" width="8" height="4" transform="matrix(-0.391, -0.921, 0.921, -0.391, 136.869, 529.164)" fill="#707070"/>
    <rect id="Rectangle_87" data-name="Rectangle 87" width="8" height="4" transform="matrix(-0.309, 0.951, -0.951, -0.309, 116.286, 521.514)" fill="#707070"/>
    <rect id="Rectangle_88" data-name="Rectangle 88" width="7" height="4" transform="matrix(0.883, 0.469, -0.469, 0.883, 127.602, 513.983)" fill="#707070"/>
  </g>
</svg>
