<svg xmlns="http://www.w3.org/2000/svg" width="327.868" height="270" viewBox="0 0 327.868 270">
  <g id="Group_19" data-name="Group 19" transform="translate(-14.563 -399.7)">
    <circle id="Ellipse_46" data-name="Ellipse 46" cx="135" cy="135" r="135" transform="translate(40.311 399.7)" fill="#82cbe6"/>
    <path id="Path_126" data-name="Path 126" d="M70.793,453s22.173-38.668,80.226-51.385,104.8,26.04,104.8,26.04S246.448,438.8,242.3,442.518s-36.007-18-48.009-24-14.252,13.426-22.158,18.3,7.842,14.426,13.611,18.833,7.642-13.812,8.547-18.833,23.447,7.615,32.906,10.571-28.377,56.488-37.836,75.317-20.021-6.066-26.694-8.089,5.228,22.38,6.971,29.84,23.324,12.217,31.1,16.29,4.741-5.785,6.321-7.713,44.478,23.73,59.3,31.64S209.6,658.092,209.6,658.092l-14.213,2.969s3.739-44.872,5.351-59.083-13.783-10.18-18.377-13.032,7-17.185,7-17.185l-38.821-18.722c-9.705-4.681-29.8-33.3-39.733-44.4s1.427-27.139,1.9-36.185S70.793,453,70.793,453Z" transform="translate(0 4.091)" fill="#fff"/>
    <path id="Path_127" data-name="Path 127" d="M300.047,595.359s21.217,21.439-2.34,17.747S58.287,501.873,39.278,489.649s6.982-9.515,6.982-9.515-23.452-7.268-22.547,2.065,35.15,39.73,112,76.908,136.463,60.506,171.479,66.332S300.047,595.359,300.047,595.359Z" transform="translate(-147.678 70.887) rotate(-17)" fill="#ff5a5a"/>
    <path id="Path_128" data-name="Path 128" d="M149.519,572.918c-1.709-1.553.584-3.111,4.546-4.681s33.139.664,33.139.664,2.36-4.414,3.039-4.988a4.163,4.163,0,0,1,2.586-.86c.943-.018,0,6.434-.335,9.865s-18.386,2.856-18.386,2.856,5.026,9.116,6.927,12.179-3.734,0-3.734,0l-13.186-12.714S151.228,574.471,149.519,572.918Z" transform="translate(91 -17.834)"/>
    <path id="Path_129" data-name="Path 129" d="M197.7,564.693s8.343-6.645,10.234-7.922a7.644,7.644,0,0,1,5.226-1.387c2.184.009-6.153,9.738-6.153,9.738" transform="translate(61 -14.367)"/>
  </g>
</svg>
