<svg height="512pt" viewBox="0 -44 512 512" width="512pt" xmlns="http://www.w3.org/2000/svg"><path d="m496.46875 152.296875h-216.921875v-16.53125c0-4.152344-3.363281-7.515625-7.515625-7.515625h-8.515625v-17.03125h56.609375c4.152344 0 7.515625-3.367188 7.515625-7.515625v-96.1875c0-4.152344-3.363281-7.515625-7.515625-7.515625s-7.515625 3.363281-7.515625 7.515625v88.671875h-56.609375c-4.152344 0-7.515625 3.363281-7.515625 7.515625v24.546875h-8.515625c-4.152344 0-7.515625 3.363281-7.515625 7.515625v16.53125h-131.757813c-4.148437 0-7.511718 3.363281-7.511718 7.515625 0 4.148438 3.363281 7.515625 7.511718 7.515625h395.773438c.277344 0 .5.222656.5.5v240.46875c0 .277344-.222656.5-.5.5h-480.9375c-.277344 0-.5-.222656-.5-.5v-240.46875c0-.277344.222656-.5.5-.5h48.09375c4.148438 0 7.515625-3.367187 7.515625-7.515625 0-4.152344-3.367187-7.515625-7.515625-7.515625h-48.09375c-8.566406 0-15.53125 6.96875-15.53125 15.53125v240.46875c0 8.5625 6.964844 15.53125 15.53125 15.53125h480.9375c8.566406 0 15.53125-6.96875 15.53125-15.53125v-240.46875c0-8.5625-6.964844-15.53125-15.53125-15.53125zm-248.984375 0v-9.015625h17.03125v9.015625zm0 0"/><path d="m40.078125 223.9375v32.0625c0 4.148438 3.363281 7.515625 7.515625 7.515625h32.0625c4.152344 0 7.515625-3.367187 7.515625-7.515625v-32.0625c0-4.148438-3.363281-7.515625-7.515625-7.515625h-32.0625c-4.152344 0-7.515625 3.367187-7.515625 7.515625zm15.03125 7.515625h17.03125v17.03125h-17.03125zm0 0"/><path d="m111.71875 263.515625h32.0625c4.152344 0 7.515625-3.367187 7.515625-7.515625v-32.0625c0-4.148438-3.363281-7.515625-7.515625-7.515625h-32.0625c-4.152344 0-7.515625 3.367187-7.515625 7.515625v32.0625c0 4.148438 3.363281 7.515625 7.515625 7.515625zm7.515625-32.0625h17.03125v17.03125h-17.03125zm0 0"/><path d="m207.90625 216.421875h-32.0625c-4.152344 0-7.515625 3.367187-7.515625 7.515625v32.0625c0 4.148438 3.363281 7.515625 7.515625 7.515625h32.0625c4.152344 0 7.515625-3.367187 7.515625-7.515625v-32.0625c0-4.148438-3.363281-7.515625-7.515625-7.515625zm-7.515625 32.0625h-17.03125v-17.03125h17.03125zm0 0"/><path d="m239.96875 263.515625h32.0625c4.152344 0 7.515625-3.367187 7.515625-7.515625v-32.0625c0-4.148438-3.363281-7.515625-7.515625-7.515625h-32.0625c-4.152344 0-7.515625 3.367187-7.515625 7.515625v32.0625c0 4.148438 3.363281 7.515625 7.515625 7.515625zm7.515625-32.0625h17.03125v17.03125h-17.03125zm0 0"/><path d="m296.578125 223.9375v32.0625c0 4.148438 3.363281 7.515625 7.515625 7.515625h32.0625c4.152344 0 7.515625-3.367187 7.515625-7.515625v-32.0625c0-4.148438-3.363281-7.515625-7.515625-7.515625h-32.0625c-4.152344 0-7.515625 3.367187-7.515625 7.515625zm15.03125 7.515625h17.03125v17.03125h-17.03125zm0 0"/><path d="m360.703125 223.9375v32.0625c0 4.148438 3.363281 7.515625 7.515625 7.515625h32.0625c4.152344 0 7.515625-3.367187 7.515625-7.515625v-32.0625c0-4.148438-3.363281-7.515625-7.515625-7.515625h-32.0625c-4.152344 0-7.515625 3.367187-7.515625 7.515625zm15.03125 7.515625h17.03125v17.03125h-17.03125zm0 0"/><path d="m471.921875 223.9375c0-4.148438-3.363281-7.515625-7.515625-7.515625h-32.0625c-4.152344 0-7.515625 3.367187-7.515625 7.515625v32.0625c0 4.148438 3.363281 7.515625 7.515625 7.515625h32.0625c4.152344 0 7.515625-3.367187 7.515625-7.515625zm-15.03125 24.546875h-17.03125v-17.03125h17.03125zm0 0"/><path d="m87.171875 288.0625c0-4.148438-3.363281-7.515625-7.515625-7.515625h-32.0625c-4.152344 0-7.515625 3.367187-7.515625 7.515625v32.0625c0 4.148438 3.363281 7.515625 7.515625 7.515625h32.0625c4.152344 0 7.515625-3.367187 7.515625-7.515625zm-15.03125 24.546875h-17.03125v-17.03125h17.03125zm0 0"/><path d="m104.203125 320.125c0 4.148438 3.363281 7.515625 7.515625 7.515625h32.0625c4.152344 0 7.515625-3.367187 7.515625-7.515625v-32.0625c0-4.148438-3.363281-7.515625-7.515625-7.515625h-32.0625c-4.152344 0-7.515625 3.367187-7.515625 7.515625zm15.03125-24.546875h17.03125v17.03125h-17.03125zm0 0"/><path d="m168.328125 320.125c0 4.148438 3.363281 7.515625 7.515625 7.515625h32.0625c4.152344 0 7.515625-3.367187 7.515625-7.515625v-32.0625c0-4.148438-3.363281-7.515625-7.515625-7.515625h-32.0625c-4.152344 0-7.515625 3.367187-7.515625 7.515625zm15.03125-24.546875h17.03125v17.03125h-17.03125zm0 0"/><path d="m232.453125 320.125c0 4.148438 3.363281 7.515625 7.515625 7.515625h32.0625c4.152344 0 7.515625-3.367187 7.515625-7.515625v-32.0625c0-4.148438-3.363281-7.515625-7.515625-7.515625h-32.0625c-4.152344 0-7.515625 3.367187-7.515625 7.515625zm15.03125-24.546875h17.03125v17.03125h-17.03125zm0 0"/><path d="m296.578125 320.125c0 4.148438 3.363281 7.515625 7.515625 7.515625h32.0625c4.152344 0 7.515625-3.367187 7.515625-7.515625v-32.0625c0-4.148438-3.363281-7.515625-7.515625-7.515625h-32.0625c-4.152344 0-7.515625 3.367187-7.515625 7.515625zm15.03125-24.546875h17.03125v17.03125h-17.03125zm0 0"/><path d="m407.796875 288.0625c0-4.148438-3.363281-7.515625-7.515625-7.515625h-32.0625c-4.152344 0-7.515625 3.367187-7.515625 7.515625v32.0625c0 4.148438 3.363281 7.515625 7.515625 7.515625h32.0625c4.152344 0 7.515625-3.367187 7.515625-7.515625zm-15.03125 24.546875h-17.03125v-17.03125h17.03125zm0 0"/><path d="m471.921875 288.0625c0-4.148438-3.363281-7.515625-7.515625-7.515625h-32.0625c-4.152344 0-7.515625 3.367187-7.515625 7.515625v32.0625c0 4.148438 3.363281 7.515625 7.515625 7.515625h32.0625c4.152344 0 7.515625-3.367187 7.515625-7.515625zm-15.03125 24.546875h-17.03125v-17.03125h17.03125zm0 0"/><path d="m464.40625 344.671875h-32.0625c-4.152344 0-7.515625 3.367187-7.515625 7.515625v32.0625c0 4.152344 3.363281 7.515625 7.515625 7.515625h32.0625c4.152344 0 7.515625-3.363281 7.515625-7.515625v-32.0625c0-4.148438-3.363281-7.515625-7.515625-7.515625zm-7.515625 32.0625h-17.03125v-17.03125h17.03125zm0 0"/><path d="m400.28125 344.671875h-48.09375c-4.152344 0-7.515625 3.367187-7.515625 7.515625v32.0625c0 4.152344 3.363281 7.515625 7.515625 7.515625h48.09375c4.152344 0 7.515625-3.363281 7.515625-7.515625v-32.0625c0-4.148438-3.363281-7.515625-7.515625-7.515625zm-7.515625 32.0625h-33.0625v-17.03125h33.0625zm0 0"/><path d="m79.65625 344.671875h-32.0625c-4.152344 0-7.515625 3.367187-7.515625 7.515625v32.0625c0 4.152344 3.363281 7.515625 7.515625 7.515625h32.0625c4.152344 0 7.515625-3.363281 7.515625-7.515625v-32.0625c0-4.148438-3.363281-7.515625-7.515625-7.515625zm-7.515625 32.0625h-17.03125v-17.03125h17.03125zm0 0"/><path d="m104.203125 384.25c0 4.152344 3.363281 7.515625 7.515625 7.515625h48.09375c4.152344 0 7.515625-3.363281 7.515625-7.515625v-32.0625c0-4.148438-3.363281-7.515625-7.515625-7.515625h-48.09375c-4.152344 0-7.515625 3.367187-7.515625 7.515625zm15.03125-24.546875h33.0625v17.03125h-33.0625zm0 0"/><path d="m184.359375 352.1875v32.0625c0 4.152344 3.363281 7.515625 7.515625 7.515625h128.25c4.152344 0 7.515625-3.363281 7.515625-7.515625v-32.0625c0-4.148438-3.363281-7.515625-7.515625-7.515625h-128.25c-4.152344 0-7.515625 3.367187-7.515625 7.515625zm15.03125 7.515625h113.21875v17.03125h-113.21875zm0 0"/><path d="m368.21875 184.359375h-48.09375c-4.152344 0-7.515625 3.367187-7.515625 7.515625s3.363281 7.515625 7.515625 7.515625h48.09375c4.152344 0 7.515625-3.367187 7.515625-7.515625s-3.363281-7.515625-7.515625-7.515625zm0 0"/><path d="m464.40625 184.359375h-64.125c-4.152344 0-7.515625 3.367187-7.515625 7.515625s3.363281 7.515625 7.515625 7.515625h64.125c4.152344 0 7.515625-3.367187 7.515625-7.515625s-3.363281-7.515625-7.515625-7.515625zm0 0"/></svg>