<svg xmlns="http://www.w3.org/2000/svg" width="329.528" height="359.951" viewBox="0 0 329.528 359.951">
  <g id="Group_20" data-name="Group 20" transform="translate(-18.101 -309.749)">
    <path id="Path_130" data-name="Path 130" d="M18.1,531.126l93.468,41.429-6.912,20.655Z" fill="#ff40ff"/>
    <rect id="Rectangle_54" data-name="Rectangle 54" width="51" height="120" transform="translate(47.188 549.7)" fill="#ffa8a8"/>
    <rect id="Rectangle_58" data-name="Rectangle 58" width="16" height="120" transform="translate(47.188 549.7)" fill="#ff7676"/>
    <rect id="Rectangle_55" data-name="Rectangle 55" width="51" height="270" transform="translate(251.188 399.7)" fill="#ffa8a8"/>
    <path id="Path_132" data-name="Path 132" d="M40.38,539.829l119.547,30.933L153.871,601.7,37.278,558.891Z" transform="translate(-143.749 -0.979) rotate(-25)" fill="#ff40ff"/>
    <rect id="Rectangle_56" data-name="Rectangle 56" width="51" height="220" transform="translate(183.188 449.7)" fill="#ffa8a8"/>
    <rect id="Rectangle_57" data-name="Rectangle 57" width="51" height="170" transform="translate(115.188 499.7)" fill="#ffa8a8"/>
    <rect id="Rectangle_59" data-name="Rectangle 59" width="16" height="170" transform="translate(115.188 499.7)" fill="#ff7676"/>
    <rect id="Rectangle_60" data-name="Rectangle 60" width="16" height="220" transform="translate(183.188 449.7)" fill="#ff7676"/>
    <rect id="Rectangle_61" data-name="Rectangle 61" width="16" height="270" transform="translate(251.188 399.7)" fill="#ff7676"/>
    <path id="Path_133" data-name="Path 133" d="M49.38,546.846l86.6,16.851-1.046,14.333L28.773,568.838Z" transform="matrix(0.391, -0.921, 0.921, 0.391, -284.878, 283.543)" fill="#ff40ff"/>
    <path id="Path_131" data-name="Path 131" d="M38.068,539.837l95.067,25.708-7.9,22.287L32.062,552.6Z" transform="matrix(-0.035, -0.999, 0.999, -0.035, -439.611, 624.011)" fill="#ff40ff"/>
    <path id="Path_134" data-name="Path 134" d="M18.7-29.927,50.953,50.787l-61.336,14.13Z" transform="matrix(0.848, 0.53, -0.53, 0.848, 288.559, 340.631)" fill="#ff40ff"/>
  </g>
</svg>
